{
  "accessors": [
    {
      "bufferView": 2,
      "componentType": 5126,
      "count": 65532,
      "max": [
        4.462742805480957,
        0.1209930032491684,
        8.431644439697266
      ],
      "min": [
        0.09529100358486176,
        -4.43854284286499,
        2.289707899093628
      ],
      "type": "VEC3"
    },
    {
      "bufferView": 2,
      "byteOffset": 786384,
      "componentType": 5126,
      "count": 65532,
      "max": [
        0.9997162222862244,
        0.9998671412467957,
        0.999998927116394
      ],
      "min": [
        -0.9999561309814453,
        -0.9999557733535767,
        -0.9999960660934448
      ],
      "type": "VEC3"
    },
    {
      "bufferView": 1,
      "componentType": 5126,
      "count": 65532,
      "max": [
        0.9900019764900208,
        0.980072021484375
      ],
      "min": [
        0.009998000226914883,
        0.021033000200986862
      ],
      "type": "VEC2"
    },
    {
      "bufferView": 0,
      "componentType": 5125,
      "count": 349494,
      "type": "SCALAR"
    },
    {
      "bufferView": 2,
      "byteOffset": 1572768,
      "componentType": 5126,
      "count": 20839,
      "max": [
        4.459228038787842,
        0.1285640001296997,
        8.428544998168945
      ],
      "min": [
        0.09847799688577652,
        -4.4220099449157715,
        2.289707899093628
      ],
      "type": "VEC3"
    },
    {
      "bufferView": 2,
      "byteOffset": 1822836,
      "componentType": 5126,
      "count": 20839,
      "max": [
        0.9999788999557495,
        0.999930739402771,
        0.999998927116394
      ],
      "min": [
        -0.9984813928604126,
        -0.9999557733535767,
        -0.9999269247055054
      ],
      "type": "VEC3"
    },
    {
      "bufferView": 1,
      "byteOffset": 524256,
      "componentType": 5126,
      "count": 20839,
      "max": [
        0.9888619780540466,
        0.980072021484375
      ],
      "min": [
        0.010603999719023705,
        0.021033000200986862
      ],
      "type": "VEC2"
    },
    {
      "bufferView": 0,
      "byteOffset": 1397976,
      "componentType": 5125,
      "count": 90588,
      "type": "SCALAR"
    },
    {
      "bufferView": 2,
      "byteOffset": 2072904,
      "componentType": 5126,
      "count": 24,
      "max": [
        4.510839939117432,
        0.20374999940395355,
        4.5901288986206055
      ],
      "min": [
        -0.007581000216305256,
        -4.314671039581299,
        0.07170800119638443
      ],
      "type": "VEC3"
    },
    {
      "bufferView": 2,
      "byteOffset": 2073192,
      "componentType": 5126,
      "count": 24,
      "max": [
        1.0,
        1.0,
        1.0
      ],
      "min": [
        -1.0,
        -1.0,
        -1.0
      ],
      "type": "VEC3"
    },
    {
      "bufferView": 1,
      "byteOffset": 690968,
      "componentType": 5126,
      "count": 24,
      "max": [
        0.875,
        1.0
      ],
      "min": [
        0.125,
        0.0
      ],
      "type": "VEC2"
    },
    {
      "bufferView": 0,
      "byteOffset": 1760328,
      "componentType": 5125,
      "count": 36,
      "type": "SCALAR"
    },
    {
      "bufferView": 2,
      "byteOffset": 2073480,
      "componentType": 5126,
      "count": 10240,
      "max": [
        4.418787002563477,
        0.14476999640464783,
        0.11449799686670303
      ],
      "min": [
        0.09870100021362305,
        -4.264782905578613,
        -0.058465998619794846
      ],
      "type": "VEC3"
    },
    {
      "bufferView": 2,
      "byteOffset": 2196360,
      "componentType": 5126,
      "count": 10240,
      "max": [
        0.0,
        0.0014999983832240105,
        1.0
      ],
      "min": [
        0.0,
        -0.0017999971751123667,
        -1.0
      ],
      "type": "VEC3"
    },
    {
      "bufferView": 0,
      "byteOffset": 1760472,
      "componentType": 5125,
      "count": 29574,
      "type": "SCALAR"
    },
    {
      "bufferView": 2,
      "byteOffset": 2319240,
      "componentType": 5126,
      "count": 9950,
      "max": [
        4.418787002563477,
        0.14476999640464783,
        0.11449799686670303
      ],
      "min": [
        0.09870100021362305,
        -4.264782905578613,
        -0.058465998619794846
      ],
      "type": "VEC3"
    },
    {
      "bufferView": 2,
      "byteOffset": 2438640,
      "componentType": 5126,
      "count": 9950,
      "max": [
        1.0,
        1.0,
        0.0
      ],
      "min": [
        -1.0,
        -1.0,
        0.0
      ],
      "type": "VEC3"
    },
    {
      "bufferView": 0,
      "byteOffset": 1878768,
      "componentType": 5125,
      "count": 29850,
      "type": "SCALAR"
    }
  ],
  "asset": {
    "extras": {
      "author": "suchaone (https://sketchfab.com/suchaone)",
      "license": "CC-BY-4.0 (http://creativecommons.org/licenses/by/4.0/)",
      "source": "https://sketchfab.com/3d-models/tendies-chop-f6d5c54904344031911786ecf9d651b7",
      "title": "Tendies Chop"
    },
    "generator": "Sketchfab-12.63.0",
    "version": "2.0"
  },
  "bufferViews": [
    {
      "buffer": 0,
      "byteLength": 1998168,
      "name": "floatBufferViews",
      "target": 34963
    },
    {
      "buffer": 0,
      "byteLength": 691160,
      "byteOffset": 1998168,
      "byteStride": 8,
      "name": "floatBufferViews",
      "target": 34962
    },
    {
      "buffer": 0,
      "byteLength": 2558040,
      "byteOffset": 2689328,
      "byteStride": 12,
      "name": "floatBufferViews",
      "target": 34962
    }
  ],
  "buffers": [
    {
      "byteLength": 5247368,
      "uri": "scene.bin"
    }
  ],
  "extensionsRequired": [
    "KHR_materials_pbrSpecularGlossiness"
  ],
  "extensionsUsed": [
    "KHR_materials_pbrSpecularGlossiness"
  ],
  "materials": [
    {
      "doubleSided": true,
      "extensions": {
        "KHR_materials_pbrSpecularGlossiness": {
          "diffuseFactor": [
            0.21569923733567953,
            0.27119792872178344,
            0.12414435807363872,
            1.0
          ],
          "glossinessFactor": 0.4,
          "specularFactor": [
            0.0,
            0.0,
            0.0
          ]
        }
      },
      "name": "null"
    },
    {
      "doubleSided": true,
      "extensions": {
        "KHR_materials_pbrSpecularGlossiness": {
          "diffuseFactor": [
            0.21127819433779374,
            0.26651984652910465,
            0.1204576114067599,
            1.0
          ],
          "glossinessFactor": 0.4,
          "specularFactor": [
            0.0,
            0.0,
            0.0
          ]
        }
      },
      "name": "Material"
    },
    {
      "doubleSided": true,
      "extensions": {
        "KHR_materials_pbrSpecularGlossiness": {
          "diffuseFactor": [
            0.18156491910621206,
            0.23509307101688112,
            0.11111455611937082,
            1.0
          ],
          "glossinessFactor": 0.4,
          "specularFactor": [
            0.0,
            0.0,
            0.0
          ]
        }
      },
      "name": "SVGMat.001"
    }
  ],
  "meshes": [
    {
      "name": "Object_0",
      "primitives": [
        {
          "attributes": {
            "NORMAL": 1,
            "POSITION": 0,
            "TEXCOORD_0": 2
          },
          "indices": 3,
          "material": 0,
          "mode": 4
        }
      ]
    },
    {
      "name": "Object_1",
      "primitives": [
        {
          "attributes": {
            "NORMAL": 5,
            "POSITION": 4,
            "TEXCOORD_0": 6
          },
          "indices": 7,
          "material": 0,
          "mode": 4
        }
      ]
    },
    {
      "name": "Object_2",
      "primitives": [
        {
          "attributes": {
            "NORMAL": 9,
            "POSITION": 8,
            "TEXCOORD_0": 10
          },
          "indices": 11,
          "material": 1,
          "mode": 4
        }
      ]
    },
    {
      "name": "Object_3",
      "primitives": [
        {
          "attributes": {
            "NORMAL": 13,
            "POSITION": 12
          },
          "indices": 14,
          "material": 2,
          "mode": 4
        }
      ]
    },
    {
      "name": "Object_4",
      "primitives": [
        {
          "attributes": {
            "NORMAL": 16,
            "POSITION": 15
          },
          "indices": 17,
          "material": 2,
          "mode": 4
        }
      ]
    }
  ],
  "nodes": [
    {
      "children": [
        1
      ],
      "matrix": [
        1.0,
        0.0,
        0.0,
        0.0,
        0.0,
        2.220446049250313e-16,
        -1.0,
        0.0,
        0.0,
        1.0,
        2.220446049250313e-16,
        0.0,
        0.0,
        0.0,
        0.0,
        1.0
      ],
      "name": "Sketchfab_model"
    },
    {
      "children": [
        2,
        3,
        4,
        5,
        6
      ],
      "name": "tendies.obj.cleaner.materialmerger.gles"
    },
    {
      "mesh": 0,
      "name": "Object_2"
    },
    {
      "mesh": 1,
      "name": "Object_3"
    },
    {
      "mesh": 2,
      "name": "Object_4"
    },
    {
      "mesh": 3,
      "name": "Object_5"
    },
    {
      "mesh": 4,
      "name": "Object_6"
    }
  ],
  "scene": 0,
  "scenes": [
    {
      "name": "Sketchfab_Scene",
      "nodes": [
        0
      ]
    }
  ]
}
