{
  "accessors": [
    {
      "bufferView": 0,
      "componentType": 5126,
      "count": 56,
      "max": [
        3.1971137523651123,
        1.2945246696472168,
        -0.051932111382484436
      ],
      "min": [
        -7.154339790344238,
        0.8833109736442566,
        -0.2596760094165802
      ],
      "type": "VEC3"
    },
    {
      "bufferView": 1,
      "componentType": 5125,
      "count": 82,
      "type": "SCALAR"
    },
    {
      "bufferView": 2,
      "componentType": 5126,
      "count": 56,
      "type": "VEC3"
    },
    {
      "bufferView": 3,
      "componentType": 5126,
      "count": 56,
      "type": "VEC4"
    },
    {
      "bufferView": 4,
      "componentType": 5126,
      "count": 56,
      "type": "VEC2"
    },
    {
      "bufferView": 5,
      "componentType": 5126,
      "count": 56,
      "max": [
        3.1971137523651123,
        -1.2566863298416138,
        -0.051932111382484436
      ],
      "min": [
        -7.154339790344238,
        -1.6678999662399292,
        -0.2596760094165802
      ],
      "type": "VEC3"
    },
    {
      "bufferView": 6,
      "componentType": 5125,
      "count": 82,
      "type": "SCALAR"
    },
    {
      "bufferView": 7,
      "componentType": 5126,
      "count": 56,
      "type": "VEC3"
    },
    {
      "bufferView": 8,
      "componentType": 5126,
      "count": 56,
      "type": "VEC4"
    },
    {
      "bufferView": 9,
      "componentType": 5126,
      "count": 56,
      "type": "VEC2"
    },
    {
      "bufferView": 10,
      "componentType": 5126,
      "count": 56,
      "max": [
        3.1971137523651123,
        -1.2566843032836914,
        -0.051932111382484436
      ],
      "min": [
        -7.154339790344238,
        -1.6678999662399292,
        -0.2596760094165802
      ],
      "type": "VEC3"
    },
    {
      "bufferView": 11,
      "componentType": 5125,
      "count": 82,
      "type": "SCALAR"
    },
    {
      "bufferView": 12,
      "componentType": 5126,
      "count": 56,
      "type": "VEC3"
    },
    {
      "bufferView": 13,
      "componentType": 5126,
      "count": 56,
      "type": "VEC4"
    },
    {
      "bufferView": 14,
      "componentType": 5126,
      "count": 56,
      "type": "VEC2"
    },
    {
      "bufferView": 15,
      "componentType": 5126,
      "count": 56,
      "max": [
        3.19706392288208,
        -1.2566863298416138,
        -0.051933109760284424
      ],
      "min": [
        -7.15438985824585,
        -1.6678999662399292,
        -0.259676992893219
      ],
      "type": "VEC3"
    },
    {
      "bufferView": 16,
      "componentType": 5125,
      "count": 82,
      "type": "SCALAR"
    },
    {
      "bufferView": 17,
      "componentType": 5126,
      "count": 56,
      "type": "VEC3"
    },
    {
      "bufferView": 18,
      "componentType": 5126,
      "count": 56,
      "type": "VEC4"
    },
    {
      "bufferView": 19,
      "componentType": 5126,
      "count": 56,
      "type": "VEC2"
    },
    {
      "bufferView": 20,
      "componentType": 5126,
      "count": 56,
      "max": [
        3.19706392288208,
        -1.2566863298416138,
        -0.051933109760284424
      ],
      "min": [
        -7.15438985824585,
        -1.6678999662399292,
        -0.259676992893219
      ],
      "type": "VEC3"
    },
    {
      "bufferView": 21,
      "componentType": 5125,
      "count": 82,
      "type": "SCALAR"
    },
    {
      "bufferView": 22,
      "componentType": 5126,
      "count": 56,
      "type": "VEC3"
    },
    {
      "bufferView": 23,
      "componentType": 5126,
      "count": 56,
      "type": "VEC4"
    },
    {
      "bufferView": 24,
      "componentType": 5126,
      "count": 56,
      "type": "VEC2"
    },
    {
      "bufferView": 25,
      "componentType": 5126,
      "count": 56,
      "max": [
        3.1971137523651123,
        1.2945256233215332,
        -0.051932111382484436
      ],
      "min": [
        -7.154339790344238,
        0.8833119869232178,
        -0.2596760094165802
      ],
      "type": "VEC3"
    },
    {
      "bufferView": 26,
      "componentType": 5125,
      "count": 82,
      "type": "SCALAR"
    },
    {
      "bufferView": 27,
      "componentType": 5126,
      "count": 56,
      "type": "VEC3"
    },
    {
      "bufferView": 28,
      "componentType": 5126,
      "count": 56,
      "type": "VEC4"
    },
    {
      "bufferView": 29,
      "componentType": 5126,
      "count": 56,
      "type": "VEC2"
    },
    {
      "bufferView": 30,
      "componentType": 5126,
      "count": 56,
      "max": [
        3.19706392288208,
        1.294521689414978,
        -0.051933109760284424
      ],
      "min": [
        -7.15438985824585,
        0.8833079934120178,
        -0.259676992893219
      ],
      "type": "VEC3"
    },
    {
      "bufferView": 31,
      "componentType": 5125,
      "count": 82,
      "type": "SCALAR"
    },
    {
      "bufferView": 32,
      "componentType": 5126,
      "count": 56,
      "type": "VEC3"
    },
    {
      "bufferView": 33,
      "componentType": 5126,
      "count": 56,
      "type": "VEC4"
    },
    {
      "bufferView": 34,
      "componentType": 5126,
      "count": 56,
      "type": "VEC2"
    },
    {
      "bufferView": 35,
      "componentType": 5126,
      "count": 610,
      "max": [
        3.754551887512207,
        8.66641902923584,
        0.06834107637405396
      ],
      "min": [
        -3.754539966583252,
        -8.605429649353027,
        -0.06834100186824799
      ],
      "type": "VEC3"
    },
    {
      "bufferView": 36,
      "componentType": 5125,
      "count": 703,
      "type": "SCALAR"
    },
    {
      "bufferView": 37,
      "componentType": 5126,
      "count": 610,
      "type": "VEC3"
    },
    {
      "bufferView": 38,
      "componentType": 5126,
      "count": 610,
      "type": "VEC4"
    },
    {
      "bufferView": 39,
      "componentType": 5126,
      "count": 610,
      "type": "VEC2"
    },
    {
      "bufferView": 40,
      "componentType": 5126,
      "count": 610,
      "max": [
        3.754512071609497,
        8.666329383850098,
        0.06834037601947784
      ],
      "min": [
        -3.754580020904541,
        -8.605520248413086,
        -0.0683417022228241
      ],
      "type": "VEC3"
    },
    {
      "bufferView": 41,
      "componentType": 5125,
      "count": 703,
      "type": "SCALAR"
    },
    {
      "bufferView": 42,
      "componentType": 5126,
      "count": 610,
      "type": "VEC3"
    },
    {
      "bufferView": 43,
      "componentType": 5126,
      "count": 610,
      "type": "VEC4"
    },
    {
      "bufferView": 44,
      "componentType": 5126,
      "count": 610,
      "type": "VEC2"
    },
    {
      "bufferView": 45,
      "componentType": 5126,
      "count": 610,
      "max": [
        3.754512071609497,
        8.666329383850098,
        0.06834037601947784
      ],
      "min": [
        -3.754580020904541,
        -8.605520248413086,
        -0.0683417022228241
      ],
      "type": "VEC3"
    },
    {
      "bufferView": 46,
      "componentType": 5125,
      "count": 703,
      "type": "SCALAR"
    },
    {
      "bufferView": 47,
      "componentType": 5126,
      "count": 610,
      "type": "VEC3"
    },
    {
      "bufferView": 48,
      "componentType": 5126,
      "count": 610,
      "type": "VEC4"
    },
    {
      "bufferView": 49,
      "componentType": 5126,
      "count": 610,
      "type": "VEC2"
    },
    {
      "bufferView": 50,
      "componentType": 5126,
      "count": 610,
      "max": [
        3.754512071609497,
        8.666329383850098,
        0.06834037601947784
      ],
      "min": [
        -3.754580020904541,
        -8.605520248413086,
        -0.0683417022228241
      ],
      "type": "VEC3"
    },
    {
      "bufferView": 51,
      "componentType": 5125,
      "count": 703,
      "type": "SCALAR"
    },
    {
      "bufferView": 52,
      "componentType": 5126,
      "count": 610,
      "type": "VEC3"
    },
    {
      "bufferView": 53,
      "componentType": 5126,
      "count": 610,
      "type": "VEC4"
    },
    {
      "bufferView": 54,
      "componentType": 5126,
      "count": 610,
      "type": "VEC2"
    },
    {
      "bufferView": 55,
      "componentType": 5126,
      "count": 56,
      "max": [
        3.19706392288208,
        -1.2566863298416138,
        -0.051933109760284424
      ],
      "min": [
        -7.15438985824585,
        -1.6678999662399292,
        -0.259676992893219
      ],
      "type": "VEC3"
    },
    {
      "bufferView": 56,
      "componentType": 5125,
      "count": 82,
      "type": "SCALAR"
    },
    {
      "bufferView": 57,
      "componentType": 5126,
      "count": 56,
      "type": "VEC3"
    },
    {
      "bufferView": 58,
      "componentType": 5126,
      "count": 56,
      "type": "VEC4"
    },
    {
      "bufferView": 59,
      "componentType": 5126,
      "count": 56,
      "type": "VEC2"
    },
    {
      "bufferView": 60,
      "componentType": 5126,
      "count": 56,
      "max": [
        3.19706392288208,
        1.294521689414978,
        -0.051933109760284424
      ],
      "min": [
        -7.15438985824585,
        0.8833079934120178,
        -0.259676992893219
      ],
      "type": "VEC3"
    },
    {
      "bufferView": 61,
      "componentType": 5125,
      "count": 82,
      "type": "SCALAR"
    },
    {
      "bufferView": 62,
      "componentType": 5126,
      "count": 56,
      "type": "VEC3"
    },
    {
      "bufferView": 63,
      "componentType": 5126,
      "count": 56,
      "type": "VEC4"
    },
    {
      "bufferView": 64,
      "componentType": 5126,
      "count": 56,
      "type": "VEC2"
    }
  ],
  "asset": {
    "version": "2.0"
  },
  "bufferViews": [
    {
      "buffer": 0,
      "byteLength": 672,
      "target": 34962
    },
    {
      "buffer": 1,
      "byteLength": 328,
      "target": 34963
    },
    {
      "buffer": 2,
      "byteLength": 672,
      "target": 34962
    },
    {
      "buffer": 3,
      "byteLength": 896,
      "target": 34962
    },
    {
      "buffer": 4,
      "byteLength": 448,
      "target": 34962
    },
    {
      "buffer": 5,
      "byteLength": 672,
      "target": 34962
    },
    {
      "buffer": 6,
      "byteLength": 328,
      "target": 34963
    },
    {
      "buffer": 7,
      "byteLength": 672,
      "target": 34962
    },
    {
      "buffer": 8,
      "byteLength": 896,
      "target": 34962
    },
    {
      "buffer": 9,
      "byteLength": 448,
      "target": 34962
    },
    {
      "buffer": 10,
      "byteLength": 672,
      "target": 34962
    },
    {
      "buffer": 11,
      "byteLength": 328,
      "target": 34963
    },
    {
      "buffer": 12,
      "byteLength": 672,
      "target": 34962
    },
    {
      "buffer": 13,
      "byteLength": 896,
      "target": 34962
    },
    {
      "buffer": 14,
      "byteLength": 448,
      "target": 34962
    },
    {
      "buffer": 15,
      "byteLength": 672,
      "target": 34962
    },
    {
      "buffer": 16,
      "byteLength": 328,
      "target": 34963
    },
    {
      "buffer": 17,
      "byteLength": 672,
      "target": 34962
    },
    {
      "buffer": 18,
      "byteLength": 896,
      "target": 34962
    },
    {
      "buffer": 19,
      "byteLength": 448,
      "target": 34962
    },
    {
      "buffer": 20,
      "byteLength": 672,
      "target": 34962
    },
    {
      "buffer": 21,
      "byteLength": 328,
      "target": 34963
    },
    {
      "buffer": 22,
      "byteLength": 672,
      "target": 34962
    },
    {
      "buffer": 23,
      "byteLength": 896,
      "target": 34962
    },
    {
      "buffer": 24,
      "byteLength": 448,
      "target": 34962
    },
    {
      "buffer": 25,
      "byteLength": 672,
      "target": 34962
    },
    {
      "buffer": 26,
      "byteLength": 328,
      "target": 34963
    },
    {
      "buffer": 27,
      "byteLength": 672,
      "target": 34962
    },
    {
      "buffer": 28,
      "byteLength": 896,
      "target": 34962
    },
    {
      "buffer": 29,
      "byteLength": 448,
      "target": 34962
    },
    {
      "buffer": 30,
      "byteLength": 672,
      "target": 34962
    },
    {
      "buffer": 31,
      "byteLength": 328,
      "target": 34963
    },
    {
      "buffer": 32,
      "byteLength": 672,
      "target": 34962
    },
    {
      "buffer": 33,
      "byteLength": 896,
      "target": 34962
    },
    {
      "buffer": 34,
      "byteLength": 448,
      "target": 34962
    },
    {
      "buffer": 35,
      "byteLength": 7320,
      "target": 34962
    },
    {
      "buffer": 36,
      "byteLength": 2812,
      "target": 34963
    },
    {
      "buffer": 37,
      "byteLength": 7320,
      "target": 34962
    },
    {
      "buffer": 38,
      "byteLength": 9760,
      "target": 34962
    },
    {
      "buffer": 39,
      "byteLength": 4880,
      "target": 34962
    },
    {
      "buffer": 40,
      "byteLength": 7320,
      "target": 34962
    },
    {
      "buffer": 41,
      "byteLength": 2812,
      "target": 34963
    },
    {
      "buffer": 42,
      "byteLength": 7320,
      "target": 34962
    },
    {
      "buffer": 43,
      "byteLength": 9760,
      "target": 34962
    },
    {
      "buffer": 44,
      "byteLength": 4880,
      "target": 34962
    },
    {
      "buffer": 45,
      "byteLength": 7320,
      "target": 34962
    },
    {
      "buffer": 46,
      "byteLength": 2812,
      "target": 34963
    },
    {
      "buffer": 47,
      "byteLength": 7320,
      "target": 34962
    },
    {
      "buffer": 48,
      "byteLength": 9760,
      "target": 34962
    },
    {
      "buffer": 49,
      "byteLength": 4880,
      "target": 34962
    },
    {
      "buffer": 50,
      "byteLength": 7320,
      "target": 34962
    },
    {
      "buffer": 51,
      "byteLength": 2812,
      "target": 34963
    },
    {
      "buffer": 52,
      "byteLength": 7320,
      "target": 34962
    },
    {
      "buffer": 53,
      "byteLength": 9760,
      "target": 34962
    },
    {
      "buffer": 54,
      "byteLength": 4880,
      "target": 34962
    },
    {
      "buffer": 55,
      "byteLength": 672,
      "target": 34962
    },
    {
      "buffer": 56,
      "byteLength": 328,
      "target": 34963
    },
    {
      "buffer": 57,
      "byteLength": 672,
      "target": 34962
    },
    {
      "buffer": 58,
      "byteLength": 896,
      "target": 34962
    },
    {
      "buffer": 59,
      "byteLength": 448,
      "target": 34962
    },
    {
      "buffer": 60,
      "byteLength": 672,
      "target": 34962
    },
    {
      "buffer": 61,
      "byteLength": 328,
      "target": 34963
    },
    {
      "buffer": 62,
      "byteLength": 672,
      "target": 34962
    },
    {
      "buffer": 63,
      "byteLength": 896,
      "target": 34962
    },
    {
      "buffer": 64,
      "byteLength": 448,
      "target": 34962
    }
  ],
  "buffers": [
    {
      "byteLength": 672,
      "uri": "data:application/octet-stream;base64,"
    },
    {
      "byteLength": 328,
      "uri": "data:application/octet-stream;base64,"
    },
    {
      "byteLength": 672,
      "uri": "data:application/octet-stream;base64,"
    },
    {
      "byteLength": 896,
      "uri": "data:application/octet-stream;base64,"
    },
    {
      "byteLength": 448,
      "uri": "data:application/octet-stream;base64,"
    },
    {
      "byteLength": 672,
      "uri": "data:application/octet-stream;base64,"
    },
    {
      "byteLength": 328,
      "uri": "data:application/octet-stream;base64,"
    },
    {
      "byteLength": 672,
      "uri": "data:application/octet-stream;base64,"
    },
    {
      "byteLength": 896,
      "uri": "data:application/octet-stream;base64,"
    },
    {
      "byteLength": 448,
      "uri": "data:application/octet-stream;base64,"
    },
    {
      "byteLength": 672,
      "uri": "data:application/octet-stream;base64,"
    },
    {
      "byteLength": 328,
      "uri": "data:application/octet-stream;base64,"
    },
    {
      "byteLength": 672,
      "uri": "data:application/octet-stream;base64,"
    },
    {
      "byteLength": 896,
      "uri": "data:application/octet-stream;base64,"
    },
    {
      "byteLength": 448,
      "uri": "data:application/octet-stream;base64,"
    },
    {
      "byteLength": 672,
      "uri": "data:application/octet-stream;base64,"
    },
    {
      "byteLength": 328,
      "uri": "data:application/octet-stream;base64,"
    },
    {
      "byteLength": 672,
      "uri": "data:application/octet-stream;base64,"
    },
    {
      "byteLength": 896,
      "uri": "data:application/octet-stream;base64,"
    },
    {
      "byteLength": 448,
      "uri": "data:application/octet-stream;base64,"
    },
    {
      "byteLength": 672,
      "uri": "data:application/octet-stream;base64,"
    },
    {
      "byteLength": 328,
      "uri": "data:application/octet-stream;base64,"
    },
    {
      "byteLength": 672,
      "uri": "data:application/octet-stream;base64,"
    },
    {
      "byteLength": 896,
      "uri": "data:application/octet-stream;base64,"
    },
    {
      "byteLength": 448,
      "uri": "data:application/octet-stream;base64,"
    },
    {
      "byteLength": 672,
      "uri": "data:application/octet-stream;base64,"
    },
    {
      "byteLength": 328,
      "uri": "data:application/octet-stream;base64,"
    },
    {
      "byteLength": 672,
      "uri": "data:application/octet-stream;base64,"
    },
    {
      "byteLength": 896,
      "uri": "data:application/octet-stream;base64,"
    },
    {
      "byteLength": 448,
      "uri": "data:application/octet-stream;base64,"
    },
    {
      "byteLength": 672,
      "uri": "data:application/octet-stream;base64,"
    },
    {
      "byteLength": 328,
      "uri": "data:application/octet-stream;base64,"
    },
    {
      "byteLength": 672,
      "uri": "data:application/octet-stream;base64,"
    },
    {
      "byteLength": 896,
      "uri": "data:application/octet-stream;base64,"
    },
    {
      "byteLength": 448,
      "uri": "data:application/octet-stream;base64,"
    },
    {
      "byteLength": 7320,
      "uri": "data:application/octet-stream;base64,"
    },
    {
      "byteLength": 2812,
      "uri": "data:application/octet-stream;base64,"
    },
    {
      "byteLength": 7320,
      "uri": "data:application/octet-stream;base64,"
    },
    {
      "byteLength": 9760,
      "uri": "data:application/octet-stream;base64,"
    },
    {
      "byteLength": 4880,
      "uri": "data:application/octet-stream;base64,"
    },
    {
      "byteLength": 7320,
      "uri": "data:application/octet-stream;base64,"
    },
    {
      "byteLength": 2812,
      "uri": "data:application/octet-stream;base64,"
    },
    {
      "byteLength": 7320,
      "uri": "data:application/octet-stream;base64,"
    },
    {
      "byteLength": 9760,
      "uri": "data:application/octet-stream;base64,"
    },
    {
      "byteLength": 4880,
      "uri": "data:application/octet-stream;base64,"
    },
    {
      "byteLength": 7320,
      "uri": "data:application/octet-stream;base64,"
    },
    {
      "byteLength": 2812,
      "uri": "data:application/octet-stream;base64,"
    },
    {
      "byteLength": 7320,
      "uri": "data:application/octet-stream;base64,"
    },
    {
      "byteLength": 9760,
      "uri": "data:application/octet-stream;base64,"
    },
    {
      "byteLength": 4880,
      "uri": "data:application/octet-stream;base64,"
    },
    {
      "byteLength": 7320,
      "uri": "data:application/octet-stream;base64,"
    },
    {
      "byteLength": 2812,
      "uri": "data:application/octet-stream;base64,"
    },
    {
      "byteLength": 7320,
      "uri": "data:application/octet-stream;base64,"
    },
    {
      "byteLength": 9760,
      "uri": "data:application/octet-stream;base64,"
    },
    {
      "byteLength": 4880,
      "uri": "data:application/octet-stream;base64,"
    },
    {
      "byteLength": 672,
      "uri": "data:application/octet-stream;base64,"
    },
    {
      "byteLength": 328,
      "uri": "data:application/octet-stream;base64,"
    },
    {
      "byteLength": 672,
      "uri": "data:application/octet-stream;base64,"
    },
    {
      "byteLength": 896,
      "uri": "data:application/octet-stream;base64,"
    },
    {
      "byteLength": 448,
      "uri": "data:application/octet-stream;base64,"
    },
    {
      "byteLength": 672,
      "uri": "data:application/octet-stream;base64,"
    },
    {
      "byteLength": 328,
      "uri": "data:application/octet-stream;base64,"
    },
    {
      "byteLength": 672,
      "uri": "data:application/octet-stream;base64,"
    },
    {
      "byteLength": 896,
      "uri": "data:application/octet-stream;base64,"
    },
    {
      "byteLength": 448,
      "uri": "data:application/octet-stream;base64,"
    }
  ],
  "materials": [
    {
      "doubleSided": true,
      "pbrMetallicRoughness": {
        "baseColorFactor": [
          0.5,
          0.5,
          0.5,
          1.0
        ]
      }
    }
  ],
  "meshes": [
    {
      "name": "defaultMaterial",
      "primitives": [
        {
          "attributes": {
            "NORMAL": 2,
            "POSITION": 0,
            "TANGENT": 3,
            "TEXCOORD_0": 4
          },
          "indices": 1,
          "material": 0,
          "mode": 5
        }
      ]
    },
    {
      "name": "defaultMaterial",
      "primitives": [
        {
          "attributes": {
            "NORMAL": 7,
            "POSITION": 5,
            "TANGENT": 8,
            "TEXCOORD_0": 9
          },
          "indices": 6,
          "material": 0,
          "mode": 5
        }
      ]
    },
    {
      "name": "defaultMaterial",
      "primitives": [
        {
          "attributes": {
            "NORMAL": 12,
            "POSITION": 10,
            "TANGENT": 13,
            "TEXCOORD_0": 14
          },
          "indices": 11,
          "material": 0,
          "mode": 5
        }
      ]
    },
    {
      "name": "defaultMaterial",
      "primitives": [
        {
          "attributes": {
            "NORMAL": 17,
            "POSITION": 15,
            "TANGENT": 18,
            "TEXCOORD_0": 19
          },
          "indices": 16,
          "material": 0,
          "mode": 5
        }
      ]
    },
    {
      "name": "defaultMaterial",
      "primitives": [
        {
          "attributes": {
            "NORMAL": 22,
            "POSITION": 20,
            "TANGENT": 23,
            "TEXCOORD_0": 24
          },
          "indices": 21,
          "material": 0,
          "mode": 5
        }
      ]
    },
    {
      "name": "defaultMaterial",
      "primitives": [
        {
          "attributes": {
            "NORMAL": 27,
            "POSITION": 25,
            "TANGENT": 28,
            "TEXCOORD_0": 29
          },
          "indices": 26,
          "material": 0,
          "mode": 5
        }
      ]
    },
    {
      "name": "defaultMaterial",
      "primitives": [
        {
          "attributes": {
            "NORMAL": 32,
            "POSITION": 30,
            "TANGENT": 33,
            "TEXCOORD_0": 34
          },
          "indices": 31,
          "material": 0,
          "mode": 5
        }
      ]
    },
    {
      "name": "defaultMaterial",
      "primitives": [
        {
          "attributes": {
            "NORMAL": 37,
            "POSITION": 35,
            "TANGENT": 38,
            "TEXCOORD_0": 39
          },
          "indices": 36,
          "material": 0,
          "mode": 5
        }
      ]
    },
    {
      "name": "defaultMaterial",
      "primitives": [
        {
          "attributes": {
            "NORMAL": 42,
            "POSITION": 40,
            "TANGENT": 43,
            "TEXCOORD_0": 44
          },
          "indices": 41,
          "material": 0,
          "mode": 5
        }
      ]
    },
    {
      "name": "defaultMaterial",
      "primitives": [
        {
          "attributes": {
            "NORMAL": 47,
            "POSITION": 45,
            "TANGENT": 48,
            "TEXCOORD_0": 49
          },
          "indices": 46,
          "material": 0,
          "mode": 5
        }
      ]
    },
    {
      "name": "defaultMaterial",
      "primitives": [
        {
          "attributes": {
            "NORMAL": 52,
            "POSITION": 50,
            "TANGENT": 53,
            "TEXCOORD_0": 54
          },
          "indices": 51,
          "material": 0,
          "mode": 5
        }
      ]
    },
    {
      "name": "defaultMaterial",
      "primitives": [
        {
          "attributes": {
            "NORMAL": 57,
            "POSITION": 55,
            "TANGENT": 58,
            "TEXCOORD_0": 59
          },
          "indices": 56,
          "material": 0,
          "mode": 5
        }
      ]
    },
    {
      "name": "defaultMaterial",
      "primitives": [
        {
          "attributes": {
            "NORMAL": 62,
            "POSITION": 60,
            "TANGENT": 63,
            "TEXCOORD_0": 64
          },
          "indices": 61,
          "material": 0,
          "mode": 5
        }
      ]
    }
  ],
  "nodes": [
    {
      "mesh": 0,
      "name": "defaultMaterial"
    },
    {
      "children": [
        0
      ],
      "name": "pCube18",
      "rotation": [
        0.0,
        0.0,
        0.0,
        1.0
      ],
      "scale": [
        0.9666669964790344,
        1.0,
        1.0
      ],
      "translation": [
        0.029529999941587448,
        3.76377010345459,
        -0.05000599846243858
      ]
    },
    {
      "mesh": 1,
      "name": "defaultMaterial"
    },
    {
      "children": [
        2
      ],
      "name": "pCube20",
      "rotation": [
        0.0,
        0.0,
        0.72334777195372,
        0.6904838888848811
      ],
      "scale": [
        1.0,
        1.0,
        1.0
      ],
      "translation": [
        0.9678840041160583,
        2.6740798950195313,
        -0.2494799941778183
      ]
    },
    {
      "mesh": 2,
      "name": "defaultMaterial"
    },
    {
      "children": [
        4
      ],
      "name": "pCube19",
      "rotation": [
        0.0,
        0.0,
        0.72334777195372,
        0.6904838888848811
      ],
      "scale": [
        1.0,
        1.0,
        1.0
      ],
      "translation": [
        -7.19504976272583,
        2.294379949569702,
        -0.2494799941778183
      ]
    },
    {
      "mesh": 3,
      "name": "defaultMaterial"
    },
    {
      "children": [
        6
      ],
      "name": "pCube5",
      "rotation": [
        0.0,
        0.0,
        0.036340514353418875,
        0.9993394653552561
      ],
      "scale": [
        0.9666672348976135,
        1.000000238418579,
        1.0
      ],
      "translation": [
        -0.10996600240468979,
        2.8980700969696045,
        -0.05000599846243858
      ]
    },
    {
      "mesh": 4,
      "name": "defaultMaterial"
    },
    {
      "children": [
        8
      ],
      "name": "pCube21",
      "rotation": [
        0.0,
        0.0,
        0.015536437562918374,
        0.9998793022699558
      ],
      "scale": [
        0.917724072933197,
        0.9999997615814209,
        1.0
      ],
      "translation": [
        8.091340065002441,
        2.769320011138916,
        -0.05000599846243858
      ]
    },
    {
      "mesh": 5,
      "name": "defaultMaterial"
    },
    {
      "children": [
        10
      ],
      "name": "pCube28",
      "rotation": [
        0.0,
        0.0,
        0.020728488904989906,
        0.9997851417918331
      ],
      "scale": [
        0.9177246689796448,
        1.0000003576278687,
        1.0
      ],
      "translation": [
        8.593990325927734,
        -3.563920021057129,
        -0.05000599846243858
      ]
    },
    {
      "mesh": 6,
      "name": "defaultMaterial"
    },
    {
      "children": [
        12
      ],
      "name": "pCube27",
      "rotation": [
        0.0,
        0.0,
        0.0251008678431844,
        0.9996849235801843
      ],
      "scale": [
        0.966667115688324,
        1.0000001192092896,
        1.0
      ],
      "translation": [
        0.08835099637508392,
        -3.4151101112365723,
        -0.05000599846243858
      ]
    },
    {
      "mesh": 7,
      "name": "defaultMaterial"
    },
    {
      "children": [
        14
      ],
      "name": "pCube26",
      "rotation": [
        -0.007867317607610117,
        9.385413812606472e-05,
        -0.011909667228772479,
        0.9998981229763169
      ],
      "scale": [
        0.572744607925415,
        0.5727444887161255,
        0.5727437138557434
      ],
      "translation": [
        8.732799530029297,
        1.0580500364303589,
        0.03279399871826172
      ]
    },
    {
      "mesh": 8,
      "name": "defaultMaterial"
    },
    {
      "children": [
        16
      ],
      "name": "pCube25",
      "rotation": [
        0.0,
        0.0,
        0.00816971009915551,
        0.9999666273615814
      ],
      "scale": [
        0.5727444291114807,
        0.5727444291114807,
        0.5727440118789673
      ],
      "translation": [
        4.293920040130615,
        0.8948690295219421,
        -0.023416999727487564
      ]
    },
    {
      "mesh": 9,
      "name": "defaultMaterial"
    },
    {
      "children": [
        18
      ],
      "name": "pCube24",
      "rotation": [
        0.0,
        0.0,
        -0.007798651098534861,
        0.9999695900581393
      ],
      "scale": [
        0.5727446675300598,
        0.5727446675300598,
        0.5727440118789673
      ],
      "translation": [
        -0.08357399702072144,
        0.7563049793243408,
        -0.023416999727487564
      ]
    },
    {
      "mesh": 10,
      "name": "defaultMaterial"
    },
    {
      "children": [
        20
      ],
      "name": "pCube1",
      "rotation": [
        0.0,
        0.0,
        0.007077505561194344,
        0.9999749541438682
      ],
      "scale": [
        0.5727443695068359,
        0.5727443695068359,
        0.5727440118789673
      ],
      "translation": [
        -4.523240089416504,
        0.5446749925613403,
        -0.023416999727487564
      ]
    },
    {
      "mesh": 11,
      "name": "defaultMaterial"
    },
    {
      "children": [
        22
      ],
      "name": "pCube23",
      "rotation": [
        0.0,
        0.0,
        0.72334777195372,
        0.6904838888848811
      ],
      "scale": [
        1.0,
        1.0,
        1.0
      ],
      "translation": [
        9.0656099319458,
        3.0507400035858154,
        -0.2494799941778183
      ]
    },
    {
      "mesh": 12,
      "name": "defaultMaterial"
    },
    {
      "children": [
        24
      ],
      "name": "pCube22",
      "rotation": [
        0.0,
        0.0,
        0.026194446542572986,
        0.9996568666149042
      ],
      "scale": [
        0.9177243709564209,
        1.0000003576278687,
        1.0
      ],
      "translation": [
        8.230629920959473,
        3.5943000316619873,
        -0.05000599846243858
      ]
    },
    {
      "children": [
        1,
        3,
        5,
        7,
        9,
        11,
        13,
        15,
        17,
        19,
        21,
        23,
        25
      ],
      "name": "group2",
      "rotation": [
        0.0,
        0.0,
        -0.02383276943574954,
        0.9997159592109263
      ],
      "scale": [
        1.0,
        1.0,
        1.0
      ],
      "translation": [
        0.0,
        0.0,
        0.0
      ]
    },
    {
      "children": [
        26
      ],
      "name": "Collada visual scene group",
      "rotation": [
        2.1855700111022284e-08,
        0.0,
        0.0,
        0.9999999999999998
      ],
      "scale": [
        1.0,
        1.0,
        1.0
      ],
      "translation": [
        0.0,
        0.0,
        0.0
      ]
    }
  ],
  "scene": 0,
  "scenes": [
    {
      "nodes": [
        27
      ]
    }
  ]
}
