{
	"asset":{
		"generator":"Khronos glTF Blender I/O v5.1.18",
		"version":"2.0"
	},
	"scene":0,
	"scenes":[
		{
			"name":"Scene",
			"nodes":[
				0,
				1,
				2,
				28,
				34,
				39,
				44
			]
		}
	],
	"nodes":[
		{
			"extras":{
				"ant_landscape":{
					"ant_terrain_name":"Landscape",
					"at_cursor":1,
					"smooth_mesh":1,
					"tri_face":0,
					"sphere_mesh":0,
					"land_material":"",
					"water_material":"",
					"texture_block":"",
					"subdivision_x":128,
					"subdivision_y":128,
					"mesh_size_x":2.0,
					"mesh_size_y":2.0,
					"mesh_size":2.0,
					"random_seed":8,
					"noise_offset_x":0.0,
					"noise_offset_y":0.0,
					"noise_offset_z":0.0,
					"noise_size_x":1.0,
					"noise_size_y":1.0,
					"noise_size_z":1.0,
					"noise_size":1.0,
					"noise_type":5,
					"basis_type":3,
					"vl_basis_type":0,
					"distortion":1.0,
					"hard_noise":1,
					"noise_depth":8,
					"amplitude":0.44999998807907104,
					"frequency":1.75,
					"dimension":1.0,
					"lacunarity":2.0,
					"offset":0.8999999761581421,
					"gain":2.0,
					"marble_bias":0,
					"marble_sharp":0,
					"marble_shape":0,
					"height":0.5,
					"height_invert":0,
					"height_offset":-0.25,
					"maximum":1.0,
					"minimum":-0.10000000149011612,
					"edge_falloff":3,
					"edge_level":0.0,
					"falloff_x":3.0,
					"falloff_y":3.0,
					"strata_type":0,
					"strata":5.0,
					"water_plane":1,
					"water_level":-0.029999999329447746,
					"vert_group":"",
					"remove_double":0,
					"fx_mixfactor":0.0,
					"fx_mix_mode":0,
					"fx_type":0,
					"fx_bias":0,
					"fx_turb":0.0,
					"fx_depth":0,
					"fx_frequency":1.5,
					"fx_amplitude":0.5,
					"fx_size":1.0,
					"fx_loc_x":0.0,
					"fx_loc_y":0.0,
					"fx_height":0.5,
					"fx_offset":0.0,
					"fx_invert":0
				}
			},
			"mesh":0,
			"name":"Landscape",
			"translation":[
				0,
				0,
				-1.9946681261062622
			]
		},
		{
			"mesh":1,
			"name":"Landscape_plane",
			"translation":[
				0,
				0,
				-1.9946681261062622
			]
		},
		{
			"extras":{
				"ant_landscape":{
					"ant_terrain_name":"Landscape",
					"at_cursor":1,
					"smooth_mesh":1,
					"tri_face":0,
					"sphere_mesh":0,
					"land_material":"",
					"water_material":"",
					"texture_block":"",
					"subdivision_x":128,
					"subdivision_y":128,
					"mesh_size_x":2.0,
					"mesh_size_y":2.0,
					"mesh_size":2.0,
					"random_seed":3,
					"noise_offset_x":0.0,
					"noise_offset_y":0.0,
					"noise_offset_z":0.0,
					"noise_size_x":2.0,
					"noise_size_y":2.0,
					"noise_size_z":1.0,
					"noise_size":0.75,
					"noise_type":1,
					"basis_type":0,
					"vl_basis_type":7,
					"distortion":1.0,
					"hard_noise":0,
					"noise_depth":12,
					"amplitude":0.5,
					"frequency":2.0,
					"dimension":1.0,
					"lacunarity":2.0,
					"offset":0.880000114440918,
					"gain":4.199997901916504,
					"marble_bias":0,
					"marble_sharp":0,
					"marble_shape":2,
					"height":0.5,
					"height_invert":0,
					"height_offset":0.25,
					"maximum":1.0,
					"minimum":-1.0,
					"edge_falloff":3,
					"edge_level":0.0,
					"falloff_x":2.0,
					"falloff_y":2.0,
					"strata_type":0,
					"strata":5.0,
					"water_plane":0,
					"water_level":0.009999999776482582,
					"vert_group":"",
					"remove_double":0,
					"fx_mixfactor":0.0,
					"fx_mix_mode":0,
					"fx_type":0,
					"fx_bias":0,
					"fx_turb":0.0,
					"fx_depth":0,
					"fx_frequency":1.5,
					"fx_amplitude":0.5,
					"fx_size":1.0,
					"fx_loc_x":0.0,
					"fx_loc_y":0.0,
					"fx_height":0.5,
					"fx_offset":0.0,
					"fx_invert":0
				}
			},
			"mesh":2,
			"name":"Landscape.001"
		},
		{
			"mesh":3,
			"name":"SM_Rocks_01_RocksStylized_M_0",
			"translation":[
				0,
				0,
				-6.103515625e-05
			]
		},
		{
			"children":[
				3
			],
			"name":"SM_Rocks_01",
			"translation":[
				0,
				0,
				-6.103515625e-05
			]
		},
		{
			"mesh":4,
			"name":"SM_Rocks_02_RocksStylized_M_0",
			"translation":[
				0,
				-80.45034790039062,
				-6.103515625e-05
			]
		},
		{
			"children":[
				5
			],
			"name":"SM_Rocks_02",
			"translation":[
				0,
				0,
				-6.103515625e-05
			]
		},
		{
			"mesh":5,
			"name":"SM_Rocks_03_RocksStylized_M_0",
			"scale":[
				1.005419135093689,
				1.0054192543029785,
				1.0054192543029785
			],
			"translation":[
				0,
				8.076446533203125,
				-6.103515625e-05
			]
		},
		{
			"children":[
				7
			],
			"name":"SM_Rocks_03",
			"translation":[
				0,
				0,
				-6.103515625e-05
			]
		},
		{
			"mesh":6,
			"name":"SM_Rocks_04_RocksStylized_M_0",
			"rotation":[
				-0.05094998702406883,
				0,
				0,
				0.9987012147903442
			],
			"translation":[
				692.9053344726562,
				-309.421875,
				-27.656982421875
			]
		},
		{
			"children":[
				9
			],
			"name":"SM_Rocks_04",
			"translation":[
				0,
				0,
				-6.103515625e-05
			]
		},
		{
			"mesh":7,
			"name":"SM_Rocks_05_RocksStylized_M_0",
			"rotation":[
				-0.1882634460926056,
				0,
				0,
				0.9821186065673828
			],
			"translation":[
				0,
				-123.64170837402344,
				-6.103515625e-05
			]
		},
		{
			"children":[
				11
			],
			"name":"SM_Rocks_05",
			"translation":[
				0,
				0,
				-6.103515625e-05
			]
		},
		{
			"mesh":8,
			"name":"SM_Rocks_06_RocksStylized_M_0",
			"translation":[
				0,
				0,
				-6.103515625e-05
			]
		},
		{
			"children":[
				13
			],
			"name":"SM_Rocks_06",
			"translation":[
				0,
				0,
				-6.103515625e-05
			]
		},
		{
			"mesh":9,
			"name":"SM_Rocks_07_RocksStylized_M_0",
			"translation":[
				-727.8709716796875,
				-249.66986083984375,
				-6.103515625e-05
			]
		},
		{
			"children":[
				15
			],
			"name":"SM_Rocks_07",
			"translation":[
				0,
				0,
				-6.103515625e-05
			]
		},
		{
			"mesh":10,
			"name":"SM_Rocks_08_RocksStylized_M_0",
			"rotation":[
				-0.31110796332359314,
				0,
				0,
				0.9503746032714844
			],
			"scale":[
				1.8280283212661743,
				1.8280284404754639,
				1.8280284404754639
			],
			"translation":[
				-212.22958374023438,
				258.2298278808594,
				591.1883544921875
			]
		},
		{
			"children":[
				17
			],
			"name":"SM_Rocks_08",
			"translation":[
				0,
				0,
				-6.103515625e-05
			]
		},
		{
			"mesh":11,
			"name":"SM_Rocks_09_RocksStylized_M_0",
			"rotation":[
				0.36957550048828125,
				0,
				0,
				0.9292007684707642
			],
			"translation":[
				-232.0035858154297,
				-209.8677520751953,
				33.25506591796875
			]
		},
		{
			"children":[
				19
			],
			"name":"SM_Rocks_09",
			"translation":[
				0,
				0,
				-6.103515625e-05
			]
		},
		{
			"mesh":12,
			"name":"SM_Rocks_10_RocksStylized_M_0",
			"translation":[
				0,
				-6.491058349609375,
				-6.103515625e-05
			]
		},
		{
			"children":[
				21
			],
			"name":"SM_Rocks_10",
			"translation":[
				0,
				0,
				-6.103515625e-05
			]
		},
		{
			"mesh":13,
			"name":"SM_Rocks_11_RocksStylized_M_0",
			"translation":[
				0,
				-15.0980224609375,
				-6.103515625e-05
			]
		},
		{
			"children":[
				23
			],
			"name":"SM_Rocks_11",
			"translation":[
				0,
				0,
				-6.103515625e-05
			]
		},
		{
			"children":[
				4,
				6,
				8,
				10,
				12,
				14,
				16,
				18,
				20,
				22,
				24
			],
			"name":"Rocks_Stylized",
			"translation":[
				-0.413238525390625,
				0,
				20.877685546875
			]
		},
		{
			"children":[
				25
			],
			"name":"RootNode"
		},
		{
			"children":[
				26
			],
			"name":"7af451f6f2f248c0ad5bacc837d44676.fbx",
			"rotation":[
				0.70710688829422,
				0,
				0,
				0.7071066498756409
			],
			"scale":[
				0.009999999776482582,
				0.010000001639127731,
				0.010000001639127731
			]
		},
		{
			"children":[
				27
			],
			"name":"Sketchfab_model",
			"rotation":[
				-0.70710688829422,
				0,
				0,
				0.7071066498756409
			],
			"scale":[
				0.08134264498949051,
				0.0813426598906517,
				0.0813426598906517
			],
			"translation":[
				0,
				0.24880114197731018,
				-0.49121570587158203
			]
		},
		{
			"mesh":14,
			"name":"SM_Rocks_11_RocksStylized_M_0.001",
			"translation":[
				0,
				-15.0980224609375,
				-6.103515625e-05
			]
		},
		{
			"children":[
				29
			],
			"name":"SM_Rocks_11.001",
			"translation":[
				0,
				0,
				-6.103515625e-05
			]
		},
		{
			"children":[
				30
			],
			"name":"Rocks_Stylized.001",
			"translation":[
				-0.413238525390625,
				0,
				20.877685546875
			]
		},
		{
			"children":[
				31
			],
			"name":"RootNode.001"
		},
		{
			"children":[
				32
			],
			"name":"7af451f6f2f248c0ad5bacc837d44676.fbx.001",
			"rotation":[
				0.70710688829422,
				0,
				0,
				0.7071066498756409
			],
			"scale":[
				0.009999999776482582,
				0.010000001639127731,
				0.010000001639127731
			]
		},
		{
			"children":[
				33
			],
			"name":"Sketchfab_model.001",
			"rotation":[
				-0.70710688829422,
				0,
				0,
				0.7071066498756409
			],
			"scale":[
				0.08134264498949051,
				0.0813426598906517,
				0.0813426598906517
			],
			"translation":[
				0,
				0.24880114197731018,
				-0.49121570587158203
			]
		},
		{
			"mesh":15,
			"name":"Plane.012_cloversMat_0",
			"translation":[
				0,
				0,
				-0.0001220703125
			]
		},
		{
			"children":[
				35
			],
			"name":"Plane.012",
			"translation":[
				0,
				0,
				-0.0001220703125
			]
		},
		{
			"children":[
				36
			],
			"name":"RootNode.002",
			"translation":[
				0,
				0,
				-0.0001220703125
			]
		},
		{
			"children":[
				37
			],
			"name":"e0529423171c4a999914223d52c67785.fbx",
			"rotation":[
				0.70710688829422,
				0,
				0,
				0.7071066498756409
			],
			"scale":[
				0.009999999776482582,
				0.010000000707805157,
				0.010000000707805157
			]
		},
		{
			"children":[
				38
			],
			"name":"Sketchfab_model.002",
			"rotation":[
				-0.70710688829422,
				0,
				0,
				0.7071066498756409
			],
			"scale":[
				0.06486321240663528,
				0.06486321985721588,
				0.06486321985721588
			],
			"translation":[
				0,
				0.253834992647171,
				-0.7670864462852478
			]
		},
		{
			"mesh":16,
			"name":"Object_4",
			"scale":[
				0.17767901718616486,
				0.17767901718616486,
				0.17767901718616486
			],
			"translation":[
				0,
				-2.0108542442321777,
				0.867673397064209
			]
		},
		{
			"children":[
				40
			],
			"name":"Grass_0"
		},
		{
			"children":[
				41
			],
			"name":"GLTF_SceneRootNode",
			"rotation":[
				0.70710688829422,
				0,
				0,
				0.7071066498756409
			]
		},
		{
			"children":[
				42
			],
			"name":"root"
		},
		{
			"children":[
				43
			],
			"name":"Sketchfab_model.003",
			"rotation":[
				-0.70710688829422,
				0,
				0,
				0.7071066498756409
			],
			"scale":[
				0.13249194622039795,
				0.13249196112155914,
				0.13249196112155914
			],
			"translation":[
				-0.01168873067945242,
				0.5090692043304443,
				-0.7982879281044006
			]
		}
	],
	"materials":[
		{
			"doubleSided":true,
			"name":"RocksStylized_M",
			"pbrMetallicRoughness":{
				"baseColorTexture":{
					"index":0
				},
				"metallicFactor":0,
				"roughnessFactor":0.88228839635849
			}
		},
		{
			"doubleSided":true,
			"name":"RocksStylized_M.001",
			"pbrMetallicRoughness":{
				"baseColorTexture":{
					"index":1
				},
				"metallicFactor":0,
				"roughnessFactor":0.88228839635849
			}
		},
		{
			"doubleSided":true,
			"name":"cloversMat",
			"normalTexture":{
				"index":2
			},
			"pbrMetallicRoughness":{
				"baseColorTexture":{
					"index":3
				},
				"metallicFactor":0,
				"roughnessFactor":0.8211145401000977
			}
		},
		{
			"doubleSided":true,
			"name":"Grass",
			"pbrMetallicRoughness":{
				"baseColorTexture":{
					"index":4
				},
				"metallicFactor":0
			}
		}
	],
	"meshes":[
		{
			"name":"Landscape",
			"primitives":[
				{
					"attributes":{
						"POSITION":0,
						"NORMAL":1
					},
					"indices":2
				}
			]
		},
		{
			"name":"Landscape_plane",
			"primitives":[
				{
					"attributes":{
						"POSITION":3,
						"NORMAL":4
					},
					"indices":5
				}
			]
		},
		{
			"name":"Landscape.001",
			"primitives":[
				{
					"attributes":{
						"POSITION":6,
						"NORMAL":7
					},
					"indices":2
				}
			]
		},
		{
			"name":"SM_Rocks_01_RocksStylized_M_0",
			"primitives":[
				{
					"attributes":{
						"POSITION":8,
						"NORMAL":9,
						"TEXCOORD_0":10,
						"TANGENT":11
					},
					"indices":12,
					"material":0
				}
			]
		},
		{
			"name":"SM_Rocks_02_RocksStylized_M_0",
			"primitives":[
				{
					"attributes":{
						"POSITION":13,
						"NORMAL":14,
						"TEXCOORD_0":15,
						"TANGENT":16
					},
					"indices":17,
					"material":0
				}
			]
		},
		{
			"name":"SM_Rocks_03_RocksStylized_M_0",
			"primitives":[
				{
					"attributes":{
						"POSITION":18,
						"NORMAL":19,
						"TEXCOORD_0":20,
						"TANGENT":21
					},
					"indices":22,
					"material":0
				}
			]
		},
		{
			"name":"SM_Rocks_04_RocksStylized_M_0",
			"primitives":[
				{
					"attributes":{
						"POSITION":23,
						"NORMAL":24,
						"TEXCOORD_0":25,
						"TANGENT":26
					},
					"indices":27,
					"material":0
				}
			]
		},
		{
			"name":"SM_Rocks_05_RocksStylized_M_0",
			"primitives":[
				{
					"attributes":{
						"POSITION":28,
						"NORMAL":29,
						"TEXCOORD_0":30,
						"TANGENT":31
					},
					"indices":32,
					"material":0
				}
			]
		},
		{
			"name":"SM_Rocks_06_RocksStylized_M_0",
			"primitives":[
				{
					"attributes":{
						"POSITION":33,
						"NORMAL":34,
						"TEXCOORD_0":35,
						"TANGENT":36
					},
					"indices":37,
					"material":0
				}
			]
		},
		{
			"name":"SM_Rocks_07_RocksStylized_M_0",
			"primitives":[
				{
					"attributes":{
						"POSITION":38,
						"NORMAL":39,
						"TEXCOORD_0":40,
						"TANGENT":41
					},
					"indices":42,
					"material":0
				}
			]
		},
		{
			"name":"SM_Rocks_08_RocksStylized_M_0",
			"primitives":[
				{
					"attributes":{
						"POSITION":43,
						"NORMAL":44,
						"TEXCOORD_0":45,
						"TANGENT":46
					},
					"indices":47,
					"material":0
				}
			]
		},
		{
			"name":"SM_Rocks_09_RocksStylized_M_0",
			"primitives":[
				{
					"attributes":{
						"POSITION":48,
						"NORMAL":49,
						"TEXCOORD_0":50,
						"TANGENT":51
					},
					"indices":52,
					"material":0
				}
			]
		},
		{
			"name":"SM_Rocks_10_RocksStylized_M_0",
			"primitives":[
				{
					"attributes":{
						"POSITION":53,
						"NORMAL":54,
						"TEXCOORD_0":55,
						"TANGENT":56
					},
					"indices":57,
					"material":0
				}
			]
		},
		{
			"name":"SM_Rocks_11_RocksStylized_M_0",
			"primitives":[
				{
					"attributes":{
						"POSITION":58,
						"NORMAL":59,
						"TEXCOORD_0":60,
						"TANGENT":61
					},
					"indices":62,
					"material":0
				}
			]
		},
		{
			"name":"SM_Rocks_11_RocksStylized_M_0.001",
			"primitives":[
				{
					"attributes":{
						"POSITION":63,
						"NORMAL":64,
						"TEXCOORD_0":65,
						"TANGENT":66
					},
					"indices":62,
					"material":1
				}
			]
		},
		{
			"name":"Plane.012_cloversMat_0",
			"primitives":[
				{
					"attributes":{
						"POSITION":67,
						"NORMAL":68,
						"TEXCOORD_0":69,
						"TEXCOORD_1":70,
						"TANGENT":71
					},
					"indices":72,
					"material":2
				}
			]
		},
		{
			"name":"Object_0",
			"primitives":[
				{
					"attributes":{
						"POSITION":73,
						"NORMAL":74,
						"TEXCOORD_0":75,
						"TANGENT":76
					},
					"indices":77,
					"material":3
				}
			]
		}
	],
	"textures":[
		{
			"sampler":0,
			"source":0
		},
		{
			"sampler":0,
			"source":1
		},
		{
			"sampler":0,
			"source":2
		},
		{
			"sampler":0,
			"source":3
		},
		{
			"sampler":0,
			"source":4
		}
	],
	"images":[
		{
			"mimeType":"image/png",
			"name":"Image_0",
			"uri":"../../assets/models/textures/Image_0.png"
		},
		{
			"mimeType":"image/png",
			"name":"Image_0.001",
			"uri":"../../assets/models/textures/Image_0.001.png"
		},
		{
			"mimeType":"image/png",
			"name":"Image_1",
			"uri":"../../assets/models/textures/Image_1.png"
		},
		{
			"mimeType":"image/png",
			"name":"Image_0.002",
			"uri":"../../assets/models/textures/Image_0.002.png"
		},
		{
			"mimeType":"image/png",
			"name":"Image_0.003",
			"uri":"../../assets/models/textures/Image_0.003.png"
		}
	],
	"accessors":[
		{
			"bufferView":0,
			"componentType":5126,
			"count":16384,
			"max":[
				1,
				0.2276304066181183,
				1
			],
			"min":[
				-1,
				-0.10000000149011612,
				-1
			],
			"type":"VEC3"
		},
		{
			"bufferView":1,
			"componentType":5126,
			"count":16384,
			"type":"VEC3"
		},
		{
			"bufferView":2,
			"componentType":5123,
			"count":96774,
			"type":"SCALAR"
		},
		{
			"bufferView":3,
			"componentType":5126,
			"count":4,
			"max":[
				1,
				-0.029999999329447746,
				1
			],
			"min":[
				-1,
				-0.029999999329447746,
				-1
			],
			"type":"VEC3"
		},
		{
			"bufferView":4,
			"componentType":5126,
			"count":4,
			"type":"VEC3"
		},
		{
			"bufferView":5,
			"componentType":5123,
			"count":6,
			"type":"SCALAR"
		},
		{
			"bufferView":6,
			"componentType":5126,
			"count":16384,
			"max":[
				1,
				0.45571693778038025,
				1
			],
			"min":[
				-1,
				0,
				-1
			],
			"type":"VEC3"
		},
		{
			"bufferView":7,
			"componentType":5126,
			"count":16384,
			"type":"VEC3"
		},
		{
			"bufferView":8,
			"componentType":5126,
			"count":151,
			"max":[
				26.427156448364258,
				32.4522590637207,
				123.10598754882812
			],
			"min":[
				-18.84183692932129,
				-9.999999974752427e-07,
				71.53838348388672
			],
			"type":"VEC3"
		},
		{
			"bufferView":9,
			"componentType":5126,
			"count":151,
			"type":"VEC3"
		},
		{
			"bufferView":10,
			"componentType":5126,
			"count":151,
			"type":"VEC2"
		},
		{
			"bufferView":11,
			"componentType":5126,
			"count":151,
			"type":"VEC4"
		},
		{
			"bufferView":12,
			"componentType":5123,
			"count":636,
			"type":"SCALAR"
		},
		{
			"bufferView":13,
			"componentType":5126,
			"count":141,
			"max":[
				162.5963897705078,
				55.856727600097656,
				35.60609436035156
			],
			"min":[
				100.85383605957031,
				-9.999999974752427e-07,
				-30.41575813293457
			],
			"type":"VEC3"
		},
		{
			"bufferView":14,
			"componentType":5126,
			"count":141,
			"type":"VEC3"
		},
		{
			"bufferView":15,
			"componentType":5126,
			"count":141,
			"type":"VEC2"
		},
		{
			"bufferView":16,
			"componentType":5126,
			"count":141,
			"type":"VEC4"
		},
		{
			"bufferView":17,
			"componentType":5123,
			"count":618,
			"type":"SCALAR"
		},
		{
			"bufferView":18,
			"componentType":5126,
			"count":860,
			"max":[
				-60.918113708496094,
				88.78302001953125,
				130.15707397460938
			],
			"min":[
				-279.327880859375,
				-9.999999974752427e-07,
				-30.681921005249023
			],
			"type":"VEC3"
		},
		{
			"bufferView":19,
			"componentType":5126,
			"count":860,
			"type":"VEC3"
		},
		{
			"bufferView":20,
			"componentType":5126,
			"count":860,
			"type":"VEC2"
		},
		{
			"bufferView":21,
			"componentType":5126,
			"count":860,
			"type":"VEC4"
		},
		{
			"bufferView":22,
			"componentType":5123,
			"count":4314,
			"type":"SCALAR"
		},
		{
			"bufferView":23,
			"componentType":5126,
			"count":426,
			"max":[
				97.70758056640625,
				169.51458740234375,
				-29.704587936401367
			],
			"min":[
				-92.28485870361328,
				-9.999999974752427e-07,
				-188.30020141601562
			],
			"type":"VEC3"
		},
		{
			"bufferView":24,
			"componentType":5126,
			"count":426,
			"type":"VEC3"
		},
		{
			"bufferView":25,
			"componentType":5126,
			"count":426,
			"type":"VEC2"
		},
		{
			"bufferView":26,
			"componentType":5126,
			"count":426,
			"type":"VEC4"
		},
		{
			"bufferView":27,
			"componentType":5123,
			"count":1800,
			"type":"SCALAR"
		},
		{
			"bufferView":28,
			"componentType":5126,
			"count":245,
			"max":[
				280.15435791015625,
				114.46504974365234,
				39.08723831176758
			],
			"min":[
				190.411376953125,
				-9.999999974752427e-07,
				-51.18692398071289
			],
			"type":"VEC3"
		},
		{
			"bufferView":29,
			"componentType":5126,
			"count":245,
			"type":"VEC3"
		},
		{
			"bufferView":30,
			"componentType":5126,
			"count":245,
			"type":"VEC2"
		},
		{
			"bufferView":31,
			"componentType":5126,
			"count":245,
			"type":"VEC4"
		},
		{
			"bufferView":32,
			"componentType":5123,
			"count":948,
			"type":"SCALAR"
		},
		{
			"bufferView":33,
			"componentType":5126,
			"count":63,
			"max":[
				182.74827575683594,
				24.095783233642578,
				146.5447540283203
			],
			"min":[
				154.42977905273438,
				-1.0132789611816406e-06,
				110.26634979248047
			],
			"type":"VEC3"
		},
		{
			"bufferView":34,
			"componentType":5126,
			"count":63,
			"type":"VEC3"
		},
		{
			"bufferView":35,
			"componentType":5126,
			"count":63,
			"type":"VEC2"
		},
		{
			"bufferView":36,
			"componentType":5126,
			"count":63,
			"type":"VEC4"
		},
		{
			"bufferView":37,
			"componentType":5123,
			"count":168,
			"type":"SCALAR"
		},
		{
			"bufferView":38,
			"componentType":5126,
			"count":58,
			"max":[
				79.54537963867188,
				40.95867919921875,
				62.566402435302734
			],
			"min":[
				22.055347442626953,
				-9.999999974752427e-07,
				4.8603410720825195
			],
			"type":"VEC3"
		},
		{
			"bufferView":39,
			"componentType":5126,
			"count":58,
			"type":"VEC3"
		},
		{
			"bufferView":40,
			"componentType":5126,
			"count":58,
			"type":"VEC2"
		},
		{
			"bufferView":41,
			"componentType":5126,
			"count":58,
			"type":"VEC4"
		},
		{
			"bufferView":42,
			"componentType":5123,
			"count":162,
			"type":"SCALAR"
		},
		{
			"bufferView":43,
			"componentType":5126,
			"count":59,
			"max":[
				187.44061279296875,
				97.57673645019531,
				-63.4009895324707
			],
			"min":[
				131.15476989746094,
				-9.999999974752427e-07,
				-99.73908996582031
			],
			"type":"VEC3"
		},
		{
			"bufferView":44,
			"componentType":5126,
			"count":59,
			"type":"VEC3"
		},
		{
			"bufferView":45,
			"componentType":5126,
			"count":59,
			"type":"VEC2"
		},
		{
			"bufferView":46,
			"componentType":5126,
			"count":59,
			"type":"VEC4"
		},
		{
			"bufferView":47,
			"componentType":5123,
			"count":162,
			"type":"SCALAR"
		},
		{
			"bufferView":48,
			"componentType":5126,
			"count":65,
			"max":[
				-112.05550384521484,
				159.49526977539062,
				-57.49268341064453
			],
			"min":[
				-199.95700073242188,
				-9.999999974752427e-07,
				-131.89910888671875
			],
			"type":"VEC3"
		},
		{
			"bufferView":49,
			"componentType":5126,
			"count":65,
			"type":"VEC3"
		},
		{
			"bufferView":50,
			"componentType":5126,
			"count":65,
			"type":"VEC2"
		},
		{
			"bufferView":51,
			"componentType":5126,
			"count":65,
			"type":"VEC4"
		},
		{
			"bufferView":52,
			"componentType":5123,
			"count":204,
			"type":"SCALAR"
		},
		{
			"bufferView":53,
			"componentType":5126,
			"count":24,
			"max":[
				116.21643829345703,
				31.20622444152832,
				96.93885803222656
			],
			"min":[
				99.032470703125,
				-1.0000001111620804e-06,
				78.90663146972656
			],
			"type":"VEC3"
		},
		{
			"bufferView":54,
			"componentType":5126,
			"count":24,
			"type":"VEC3"
		},
		{
			"bufferView":55,
			"componentType":5126,
			"count":24,
			"type":"VEC2"
		},
		{
			"bufferView":56,
			"componentType":5126,
			"count":24,
			"type":"VEC4"
		},
		{
			"bufferView":57,
			"componentType":5123,
			"count":108,
			"type":"SCALAR"
		},
		{
			"bufferView":58,
			"componentType":5126,
			"count":27,
			"max":[
				-3.220587968826294,
				71.71635437011719,
				33.81190872192383
			],
			"min":[
				-38.36272430419922,
				-1.0000001111620804e-06,
				4.285192012786865
			],
			"type":"VEC3"
		},
		{
			"bufferView":59,
			"componentType":5126,
			"count":27,
			"type":"VEC3"
		},
		{
			"bufferView":60,
			"componentType":5126,
			"count":27,
			"type":"VEC2"
		},
		{
			"bufferView":61,
			"componentType":5126,
			"count":27,
			"type":"VEC4"
		},
		{
			"bufferView":62,
			"componentType":5123,
			"count":108,
			"type":"SCALAR"
		},
		{
			"bufferView":63,
			"componentType":5126,
			"count":27,
			"max":[
				-3.220587968826294,
				71.71635437011719,
				33.81190872192383
			],
			"min":[
				-38.36272430419922,
				-1.0000001111620804e-06,
				4.285192012786865
			],
			"type":"VEC3"
		},
		{
			"bufferView":64,
			"componentType":5126,
			"count":27,
			"type":"VEC3"
		},
		{
			"bufferView":65,
			"componentType":5126,
			"count":27,
			"type":"VEC2"
		},
		{
			"bufferView":66,
			"componentType":5126,
			"count":27,
			"type":"VEC4"
		},
		{
			"bufferView":67,
			"componentType":5126,
			"count":1437,
			"max":[
				21.733503341674805,
				30.1241455078125,
				21.094087600708008
			],
			"min":[
				-22.262739181518555,
				-0.05415992811322212,
				-20.839040756225586
			],
			"type":"VEC3"
		},
		{
			"bufferView":68,
			"componentType":5126,
			"count":1437,
			"type":"VEC3"
		},
		{
			"bufferView":69,
			"componentType":5126,
			"count":1437,
			"type":"VEC2"
		},
		{
			"bufferView":70,
			"componentType":5126,
			"count":1437,
			"type":"VEC2"
		},
		{
			"bufferView":71,
			"componentType":5126,
			"count":1437,
			"type":"VEC4"
		},
		{
			"bufferView":72,
			"componentType":5123,
			"count":2739,
			"type":"SCALAR"
		},
		{
			"bufferView":73,
			"componentType":5126,
			"count":168,
			"max":[
				1.2083648443222046,
				1.4514113664627075,
				0.9772107601165771
			],
			"min":[
				-1.2576407194137573,
				-0.023432714864611626,
				-1.3937736749649048
			],
			"type":"VEC3"
		},
		{
			"bufferView":74,
			"componentType":5126,
			"count":168,
			"type":"VEC3"
		},
		{
			"bufferView":75,
			"componentType":5126,
			"count":168,
			"type":"VEC2"
		},
		{
			"bufferView":76,
			"componentType":5126,
			"count":168,
			"type":"VEC4"
		},
		{
			"bufferView":77,
			"componentType":5123,
			"count":468,
			"type":"SCALAR"
		}
	],
	"bufferViews":[
		{
			"buffer":0,
			"byteLength":196608,
			"byteOffset":0,
			"target":34962
		},
		{
			"buffer":0,
			"byteLength":196608,
			"byteOffset":196608,
			"target":34962
		},
		{
			"buffer":0,
			"byteLength":193548,
			"byteOffset":393216,
			"target":34963
		},
		{
			"buffer":0,
			"byteLength":48,
			"byteOffset":586764,
			"target":34962
		},
		{
			"buffer":0,
			"byteLength":48,
			"byteOffset":586812,
			"target":34962
		},
		{
			"buffer":0,
			"byteLength":12,
			"byteOffset":586860,
			"target":34963
		},
		{
			"buffer":0,
			"byteLength":196608,
			"byteOffset":586872,
			"target":34962
		},
		{
			"buffer":0,
			"byteLength":196608,
			"byteOffset":783480,
			"target":34962
		},
		{
			"buffer":0,
			"byteLength":1812,
			"byteOffset":980088,
			"target":34962
		},
		{
			"buffer":0,
			"byteLength":1812,
			"byteOffset":981900,
			"target":34962
		},
		{
			"buffer":0,
			"byteLength":1208,
			"byteOffset":983712,
			"target":34962
		},
		{
			"buffer":0,
			"byteLength":2416,
			"byteOffset":984920,
			"target":34962
		},
		{
			"buffer":0,
			"byteLength":1272,
			"byteOffset":987336,
			"target":34963
		},
		{
			"buffer":0,
			"byteLength":1692,
			"byteOffset":988608,
			"target":34962
		},
		{
			"buffer":0,
			"byteLength":1692,
			"byteOffset":990300,
			"target":34962
		},
		{
			"buffer":0,
			"byteLength":1128,
			"byteOffset":991992,
			"target":34962
		},
		{
			"buffer":0,
			"byteLength":2256,
			"byteOffset":993120,
			"target":34962
		},
		{
			"buffer":0,
			"byteLength":1236,
			"byteOffset":995376,
			"target":34963
		},
		{
			"buffer":0,
			"byteLength":10320,
			"byteOffset":996612,
			"target":34962
		},
		{
			"buffer":0,
			"byteLength":10320,
			"byteOffset":1006932,
			"target":34962
		},
		{
			"buffer":0,
			"byteLength":6880,
			"byteOffset":1017252,
			"target":34962
		},
		{
			"buffer":0,
			"byteLength":13760,
			"byteOffset":1024132,
			"target":34962
		},
		{
			"buffer":0,
			"byteLength":8628,
			"byteOffset":1037892,
			"target":34963
		},
		{
			"buffer":0,
			"byteLength":5112,
			"byteOffset":1046520,
			"target":34962
		},
		{
			"buffer":0,
			"byteLength":5112,
			"byteOffset":1051632,
			"target":34962
		},
		{
			"buffer":0,
			"byteLength":3408,
			"byteOffset":1056744,
			"target":34962
		},
		{
			"buffer":0,
			"byteLength":6816,
			"byteOffset":1060152,
			"target":34962
		},
		{
			"buffer":0,
			"byteLength":3600,
			"byteOffset":1066968,
			"target":34963
		},
		{
			"buffer":0,
			"byteLength":2940,
			"byteOffset":1070568,
			"target":34962
		},
		{
			"buffer":0,
			"byteLength":2940,
			"byteOffset":1073508,
			"target":34962
		},
		{
			"buffer":0,
			"byteLength":1960,
			"byteOffset":1076448,
			"target":34962
		},
		{
			"buffer":0,
			"byteLength":3920,
			"byteOffset":1078408,
			"target":34962
		},
		{
			"buffer":0,
			"byteLength":1896,
			"byteOffset":1082328,
			"target":34963
		},
		{
			"buffer":0,
			"byteLength":756,
			"byteOffset":1084224,
			"target":34962
		},
		{
			"buffer":0,
			"byteLength":756,
			"byteOffset":1084980,
			"target":34962
		},
		{
			"buffer":0,
			"byteLength":504,
			"byteOffset":1085736,
			"target":34962
		},
		{
			"buffer":0,
			"byteLength":1008,
			"byteOffset":1086240,
			"target":34962
		},
		{
			"buffer":0,
			"byteLength":336,
			"byteOffset":1087248,
			"target":34963
		},
		{
			"buffer":0,
			"byteLength":696,
			"byteOffset":1087584,
			"target":34962
		},
		{
			"buffer":0,
			"byteLength":696,
			"byteOffset":1088280,
			"target":34962
		},
		{
			"buffer":0,
			"byteLength":464,
			"byteOffset":1088976,
			"target":34962
		},
		{
			"buffer":0,
			"byteLength":928,
			"byteOffset":1089440,
			"target":34962
		},
		{
			"buffer":0,
			"byteLength":324,
			"byteOffset":1090368,
			"target":34963
		},
		{
			"buffer":0,
			"byteLength":708,
			"byteOffset":1090692,
			"target":34962
		},
		{
			"buffer":0,
			"byteLength":708,
			"byteOffset":1091400,
			"target":34962
		},
		{
			"buffer":0,
			"byteLength":472,
			"byteOffset":1092108,
			"target":34962
		},
		{
			"buffer":0,
			"byteLength":944,
			"byteOffset":1092580,
			"target":34962
		},
		{
			"buffer":0,
			"byteLength":324,
			"byteOffset":1093524,
			"target":34963
		},
		{
			"buffer":0,
			"byteLength":780,
			"byteOffset":1093848,
			"target":34962
		},
		{
			"buffer":0,
			"byteLength":780,
			"byteOffset":1094628,
			"target":34962
		},
		{
			"buffer":0,
			"byteLength":520,
			"byteOffset":1095408,
			"target":34962
		},
		{
			"buffer":0,
			"byteLength":1040,
			"byteOffset":1095928,
			"target":34962
		},
		{
			"buffer":0,
			"byteLength":408,
			"byteOffset":1096968,
			"target":34963
		},
		{
			"buffer":0,
			"byteLength":288,
			"byteOffset":1097376,
			"target":34962
		},
		{
			"buffer":0,
			"byteLength":288,
			"byteOffset":1097664,
			"target":34962
		},
		{
			"buffer":0,
			"byteLength":192,
			"byteOffset":1097952,
			"target":34962
		},
		{
			"buffer":0,
			"byteLength":384,
			"byteOffset":1098144,
			"target":34962
		},
		{
			"buffer":0,
			"byteLength":216,
			"byteOffset":1098528,
			"target":34963
		},
		{
			"buffer":0,
			"byteLength":324,
			"byteOffset":1098744,
			"target":34962
		},
		{
			"buffer":0,
			"byteLength":324,
			"byteOffset":1099068,
			"target":34962
		},
		{
			"buffer":0,
			"byteLength":216,
			"byteOffset":1099392,
			"target":34962
		},
		{
			"buffer":0,
			"byteLength":432,
			"byteOffset":1099608,
			"target":34962
		},
		{
			"buffer":0,
			"byteLength":216,
			"byteOffset":1100040,
			"target":34963
		},
		{
			"buffer":0,
			"byteLength":324,
			"byteOffset":1100256,
			"target":34962
		},
		{
			"buffer":0,
			"byteLength":324,
			"byteOffset":1100580,
			"target":34962
		},
		{
			"buffer":0,
			"byteLength":216,
			"byteOffset":1100904,
			"target":34962
		},
		{
			"buffer":0,
			"byteLength":432,
			"byteOffset":1101120,
			"target":34962
		},
		{
			"buffer":0,
			"byteLength":17244,
			"byteOffset":1101552,
			"target":34962
		},
		{
			"buffer":0,
			"byteLength":17244,
			"byteOffset":1118796,
			"target":34962
		},
		{
			"buffer":0,
			"byteLength":11496,
			"byteOffset":1136040,
			"target":34962
		},
		{
			"buffer":0,
			"byteLength":11496,
			"byteOffset":1147536,
			"target":34962
		},
		{
			"buffer":0,
			"byteLength":22992,
			"byteOffset":1159032,
			"target":34962
		},
		{
			"buffer":0,
			"byteLength":5478,
			"byteOffset":1182024,
			"target":34963
		},
		{
			"buffer":0,
			"byteLength":2016,
			"byteOffset":1187504,
			"target":34962
		},
		{
			"buffer":0,
			"byteLength":2016,
			"byteOffset":1189520,
			"target":34962
		},
		{
			"buffer":0,
			"byteLength":1344,
			"byteOffset":1191536,
			"target":34962
		},
		{
			"buffer":0,
			"byteLength":2688,
			"byteOffset":1192880,
			"target":34962
		},
		{
			"buffer":0,
			"byteLength":936,
			"byteOffset":1195568,
			"target":34963
		}
	],
	"samplers":[
		{
			"magFilter":9729,
			"minFilter":9987
		}
	],
	"buffers":[
		{
			"byteLength":1196504,
			"uri":"allassets-cbf57685c577b93eeb956a7e588f12af.bin"
		}
	]
}
