{
	"asset":{
		"generator":"Khronos glTF Blender I/O v4.5.48",
		"version":"2.0"
	},
	"scene":0,
	"scenes":[
		{
			"name":"Scene",
			"nodes":[
				0
			]
		}
	],
	"nodes":[
		{
			"extras":{
				"ant_landscape":{
					"ant_terrain_name":"Landscape",
					"at_cursor":1,
					"smooth_mesh":1,
					"tri_face":0,
					"sphere_mesh":0,
					"land_material":"",
					"water_material":"",
					"texture_block":"",
					"subdivision_x":100,
					"subdivision_y":100,
					"mesh_size_x":2.5,
					"mesh_size_y":2.5,
					"mesh_size":2.0,
					"random_seed":860,
					"noise_offset_x":0.0,
					"noise_offset_y":0.0,
					"noise_offset_z":0.0,
					"noise_size_x":1.0,
					"noise_size_y":1.0,
					"noise_size_z":1.0,
					"noise_size":0.5,
					"noise_type":2,
					"basis_type":3,
					"vl_basis_type":0,
					"distortion":1.0,
					"hard_noise":0,
					"noise_depth":6,
					"amplitude":0.5,
					"frequency":2.0,
					"dimension":1.0,
					"lacunarity":5.0,
					"offset":1.0,
					"gain":2.0,
					"marble_bias":1,
					"marble_sharp":3,
					"marble_shape":3,
					"height":0.25,
					"height_invert":1,
					"height_offset":0.0,
					"maximum":1.0,
					"minimum":-1.0,
					"edge_falloff":3,
					"edge_level":0.0,
					"falloff_x":6.0,
					"falloff_y":6.0,
					"strata_type":0,
					"strata":5.0,
					"water_plane":0,
					"water_level":0.009999999776482582,
					"vert_group":"",
					"remove_double":0,
					"fx_mixfactor":0.0,
					"fx_mix_mode":0,
					"fx_type":0,
					"fx_bias":0,
					"fx_turb":0.0,
					"fx_depth":0,
					"fx_frequency":2.0,
					"fx_amplitude":0.5,
					"fx_size":1.0,
					"fx_loc_x":0.0,
					"fx_loc_y":0.0,
					"fx_height":0.5,
					"fx_offset":0.0,
					"fx_invert":0
				}
			},
			"mesh":0,
			"name":"Landscape"
		}
	],
	"meshes":[
		{
			"name":"Landscape",
			"primitives":[
				{
					"attributes":{
						"POSITION":0,
						"NORMAL":1
					},
					"indices":2
				}
			]
		}
	],
	"accessors":[
		{
			"bufferView":0,
			"componentType":5126,
			"count":10000,
			"max":[
				1.25,
				0.19288673996925354,
				1.25
			],
			"min":[
				-1.25,
				-0.021565914154052734,
				-1.25
			],
			"type":"VEC3"
		},
		{
			"bufferView":1,
			"componentType":5126,
			"count":10000,
			"type":"VEC3"
		},
		{
			"bufferView":2,
			"componentType":5123,
			"count":58806,
			"type":"SCALAR"
		}
	],
	"bufferViews":[
		{
			"buffer":0,
			"byteLength":120000,
			"byteOffset":0,
			"target":34962
		},
		{
			"buffer":0,
			"byteLength":120000,
			"byteOffset":120000,
			"target":34962
		},
		{
			"buffer":0,
			"byteLength":117612,
			"byteOffset":240000,
			"target":34963
		}
	],
	"buffers":[
		{
			"byteLength":357612,
			"uri":"terrain-0343d6f0e6459ff0512c30a5803c2760.bin"
		}
	]
}
